<svg viewBox="0 0 340 240" xmlns="http://www.w3.org/2000/svg" width="340" height="240">
  <defs>
    <clipPath id="abd"><path d="M150,122 C150,74 180,50 214,50 C262,50 302,84 312,122 C302,160 262,194 214,194 C180,194 150,170 150,122 Z"></path></clipPath>
  </defs>
  <path d="M126,96 Q205,2 308,30 Q232,72 150,110 Z" fill="rgba(122,165,237,0.22)" stroke="rgba(122,165,237,0.45)" stroke-width="2"></path>
  <path d="M130,104 Q196,44 276,74 Q212,96 148,116 Z" fill="rgba(122,165,237,0.22)" stroke="rgba(122,165,237,0.45)" stroke-width="2"></path>
  <g fill="none" stroke="#181B20" stroke-width="5" stroke-linecap="round" stroke-linejoin="round">
    <path d="M96,150 L86,180 L100,190"></path>
    <path d="M116,154 L114,186 L130,194"></path>
    <path d="M134,152 L146,182 L162,190"></path>
  </g>
  <g fill="none" stroke="#181B20" stroke-width="5" stroke-linecap="round">
    <path d="M50,100 Q36,66 24,56"></path>
    <path d="M60,96 Q56,62 52,46"></path>
  </g>
  <circle cx="24" cy="56" r="4.5" fill="#181B20"></circle>
  <circle cx="52" cy="46" r="4.5" fill="#181B20"></circle>
  <path d="M150,122 C150,74 180,50 214,50 C262,50 302,84 312,122 C302,160 262,194 214,194 C180,194 150,170 150,122 Z" fill="#F5A623"></path>
  <path d="M305,109 L305,135 L337,122 Z" fill="#181B20"></path>
  <g clip-path="url(#abd)">
    <rect x="171" y="48" width="30" height="148" rx="8" fill="#181B20"></rect>
    <rect x="215" y="48" width="30" height="148" rx="8" fill="#181B20"></rect>
    <rect x="259" y="48" width="30" height="148" rx="8" fill="#181B20"></rect>
  </g>
  <g fill="none" stroke="#F5A623" stroke-linecap="round" stroke-linejoin="round">
    <g transform="translate(186,100) scale(1.95) translate(-12,-12)" stroke-width="2.3"><path d="M5 12h14"></path><path d="M12 5v14"></path></g>
    <g transform="translate(230,122) scale(1.95) translate(-12,-12)" stroke-width="2.3"><path d="M5 12h14"></path></g>
    <g transform="translate(274,144) scale(1.5) translate(-12,-12)" stroke-width="3.0"><path d="M3 12a9 9 0 0 1 9-9 9.75 9.75 0 0 1 6.74 2.74L21 8"></path><path d="M21 3v5h-5"></path><path d="M21 12a9 9 0 0 1-9 9 9.75 9.75 0 0 1-6.74-2.74L3 16"></path><path d="M3 21v-5h5"></path></g>
  </g>
  <path d="M126,122 C140,114 150,114 156,122 C150,130 140,130 126,122 Z" fill="#181B20"></path>
  <ellipse cx="100" cy="122" rx="36" ry="31" fill="#181B20"></ellipse>
  <circle cx="56" cy="120" r="27" fill="#181B20"></circle>
  <circle cx="48" cy="113" r="4.5" fill="#FFFFFF"></circle>
</svg>
